<svg width="800" height="119" viewBox="0 0 800 119" fill="none" xmlns="http://www.w3.org/2000/svg">
<path fill-rule="evenodd" clip-rule="evenodd" d="M0.427528 1.90173C0.0350118 2.94844 -0.115608 29.4768 0.0958635 60.8552L0.477741 117.907L23.6788 118.327L46.8799 118.747V60.8948C46.8799 -2.69132 46.6227 -1.16081 55.8469 7.45629L60.5723 11.8698V65.2688V118.668H86.3825H112.193L117.522 113.989L122.852 109.31L128.289 113.457C139.182 121.767 154.627 119.352 162.094 108.173C165.182 103.55 165.548 101.163 165.548 85.5823C165.548 65.7587 163.517 59.3126 155.78 54.5963C149.028 50.4779 137.025 50.7548 130.401 55.1805C121.633 61.0378 119.911 66.5361 119.909 88.6935C119.906 107.793 119.83 108.234 115.881 111.895C112.715 114.829 110.218 115.625 104.186 115.625H96.5165L100.499 111.441C106.819 104.805 108.082 96.2669 107.499 64.149C107.02 37.7591 106.698 34.8396 103.837 31.0103C97.3547 22.3323 93.3383 20.5797 78.6235 20.0031C65.4133 19.4858 64.893 19.3291 63.4873 15.439C58.2963 1.07713 55.6004 0 24.8214 0C7.27376 0 0.95849 0.492927 0.427528 1.90173ZM374.737 2.03256C364.118 4.80452 358.644 7.96747 352.283 15.0069C341.619 26.8128 340.937 43.2513 350.636 54.7773C355.994 61.1458 361.167 63.5633 381.797 69.3385C391.535 72.0648 401.623 75.392 404.214 76.7308C413.574 81.5719 411.241 93.1907 400.507 95.205C388.987 97.3653 372.061 95.1396 361.138 90.0277C355.46 87.3714 350.622 85.1973 350.386 85.1973C350.15 85.1973 348.135 89.7539 345.904 95.3221C342.674 103.392 342.256 105.719 343.841 106.789C359.271 117.186 390.208 121.817 408.311 116.439C421.132 112.631 429.933 105.996 434.134 96.9728C438.541 87.5068 438.83 79.0783 435.034 70.7244C430.161 59.9972 420.213 54.6389 391.082 47.0533C371.587 41.9749 367.026 36.6592 374.608 27.8504C378.176 23.7031 378.708 23.5829 393.245 23.6301C405.383 23.6696 409.609 24.3162 415.628 27.0532C419.71 28.9093 423.554 30.4276 424.172 30.4276C425.854 30.4276 432.15 12.2639 431.266 9.95897C428.716 3.31358 390.409 -2.05691 374.737 2.03256ZM477.431 2.75978C464.972 6.01553 457.352 11.7892 452.402 21.7223C447.972 30.6102 447.482 38.6811 450.88 46.8099C455.853 58.7162 461.978 62.5196 488.074 69.9059C497.694 72.6292 507.402 75.8074 509.647 76.9682C517.2 80.8736 517.041 89.6033 509.348 93.5817C499.687 98.5764 470.893 94.9463 460.075 87.3684C458.371 86.1741 456.533 85.1973 455.991 85.1973C454.908 85.1973 447.003 102.753 447.003 105.159C447.003 107.266 462.263 114.024 472.6 116.495C484.087 119.241 503.979 119.205 513.357 116.419C531.873 110.921 541.899 99.121 541.899 82.8301C541.899 64.9462 532.795 57.1978 501.899 48.7816C491.764 46.0202 481.77 42.4237 479.69 40.7867C474.825 36.9604 474.882 31.9216 479.844 27.2692C483.458 23.8811 484.969 23.586 498.481 23.6453C510.296 23.697 514.641 24.3695 520.603 27.0684C524.685 28.9154 528.316 30.4276 528.674 30.4276C529.672 30.4276 536.765 13.8826 536.765 11.5549C536.765 8.81336 523.352 3.17817 512.663 1.42706C500.178 -0.617675 488.69 -0.182573 477.431 2.75978ZM260.704 2.92866C260.226 3.70305 256.147 12.775 251.641 23.087C247.135 33.4004 238.186 53.4765 231.755 67.7015C215.52 103.609 211.189 113.684 211.189 115.541C211.189 116.545 216.207 117.146 224.594 117.146H237.999L242.613 105.356L247.229 93.5649H274.323H301.418L306.173 104.975L310.929 116.386L324.956 116.824C332.673 117.064 338.985 116.987 338.985 116.652C338.985 115.581 330.421 95.4849 324.606 82.9153C321.51 76.2212 312.435 56.0249 304.441 38.0345C296.444 20.0442 289.224 4.46982 288.395 3.42311C286.608 1.17146 262.061 0.734832 260.704 2.92866ZM560.623 2.5118C560.052 3.08232 559.585 29.1086 559.585 60.3486V117.146H604.533H649.481L649.033 106.116L648.586 95.0863L617.778 94.674L586.97 94.2632V81.4684V68.6751L601.043 68.8486C608.782 68.9444 620.763 68.8957 627.667 68.7421L640.218 68.4621V58.5732V48.6842H613.594H586.97V36.5451V24.406L617.017 23.9937L647.065 23.5814V12.9317V2.28207L604.363 1.87891C580.875 1.65678 561.193 1.94128 560.623 2.5118ZM669.818 3.42919C669.415 4.47894 669.266 30.3242 669.485 60.8613L669.885 116.386L682.406 116.827L694.929 117.268L695.338 84.1704L695.749 51.0743L704.877 66.1131C709.898 74.3834 717.144 86.3414 720.979 92.6825L727.955 104.215H734.667H741.378L757.739 76.9043L774.1 49.5955V83.3702V117.146H787.05H800L799.601 59.7142L799.203 2.28207L788.374 1.83935L777.543 1.39663L756.568 36.5177C745.031 55.8362 735.078 71.0972 734.448 70.4323C733.82 69.7675 726.274 57.5843 717.681 43.3594C709.088 29.1344 699.761 13.9009 696.954 9.50863L691.853 1.52138H681.201C674.065 1.52138 670.308 2.15123 669.818 3.42919ZM283.547 51.2416L291.71 70.7442L282.578 71.1991C277.556 71.4486 269.808 71.4486 265.362 71.1991L257.276 70.7442L265.702 50.6133C270.336 39.5407 274.41 30.7654 274.755 31.1107C275.102 31.4576 279.058 40.5159 283.547 51.2416Z" fill="#374B73"/>
</svg>
